<svg xmlns="http://www.w3.org/2000/svg" version="1.1" viewBox="-5.0 -10.0 110.0 135.0">
 <path d="m23.867 96.418c0.29297 0.29297 0.69141 0.45703 1.1055 0.45703 0.41406 0 0.8125-0.16406 1.1055-0.45703l7.293-7.293h28.047c1.6406 0 3.2422-0.66406 4.3945-1.8164l19.328-19.328c0.76172-0.76172 1.2031-1.8242 1.2031-2.9102 0-1.0703-0.4375-2.125-1.2031-2.8906-2.2656-2.2656-5.8125-2.5703-8.4453-0.71875l-13.566 9.6406c-1.3359-2.1641-3.7109-3.6211-6.4336-3.6211h-10.156l-0.85156-0.85156c-5.8359-5.8359-15.332-5.8359-21.172 0l-14.117 14.117c-0.60938 0.60938-0.60938 1.5977 0 2.2109l13.465 13.465zm2.8594-27.582c4.6172-4.6172 12.133-4.6172 16.75 0l1.3086 1.3086c0.29297 0.29297 0.69141 0.45703 1.1055 0.45703h10.805c2.457 0 4.457 2 4.457 4.457 0 0.65625-0.53516 1.1914-1.1914 1.1914h-17.68c-0.86328 0-1.5625 0.69922-1.5625 1.5625s0.69922 1.5625 1.5625 1.5625h17.68c2.3789 0 4.3164-1.9375 4.3164-4.3164 0-0.30859-0.054688-0.60156-0.089844-0.89844l14.312-10.148c1.3789-0.96875 3.2422-0.80859 4.4297 0.375 0.17969 0.17969 0.28516 0.43359 0.28516 0.67969 0 0.26562-0.10156 0.51953-0.28516 0.69922l-19.328 19.328c-0.57422 0.57031-1.3672 0.90234-2.1875 0.90234h-28.695c-0.41406 0-0.8125 0.16406-1.1055 0.45703l-6.6484 6.6484-11.258-11.258 13.012-13.012z"/>
 <path d="m48.895 63.199c0.30469 0.30469 0.70312 0.45703 1.1055 0.45703 0.39844 0 0.80078-0.15234 1.1055-0.45703l26.008-26.008c3.7695-3.7695 5.8477-8.7812 5.8477-14.109s-2.0781-10.34-5.8477-14.109c-3.7656-3.7656-8.7773-5.8398-14.109-5.8398-4.8281 0-9.3906 1.6992-13.004 4.8125-3.6172-3.1172-8.1797-4.8203-13.004-4.8203-5.3281 0-10.34 2.0781-14.109 5.8477-3.7656 3.7656-5.8398 8.7773-5.8398 14.109s2.0742 10.344 5.8398 14.109zm-23.801-52.02c3.1797-3.1797 7.4062-4.9297 11.898-4.9297 4.4922 0 8.7188 1.75 11.898 4.9297 0.29297 0.29297 0.69141 0.45703 1.1055 0.45703 0.41406 0 0.8125-0.16406 1.1055-0.45703 3.1758-3.1758 7.4023-4.9258 11.898-4.9258 4.5 0 8.7227 1.75 11.898 4.9258 3.1758 3.1758 4.9297 7.4062 4.9297 11.898s-1.75 8.7188-4.9297 11.898l-24.906 24.906-24.906-24.906c-3.1758-3.1758-4.9219-7.4023-4.9219-11.898 0-4.5 1.75-8.7227 4.9219-11.898z"/>
 <path d="m38.074 36.16h6.3203v6.3203c0 0.86328 0.69922 1.5625 1.5625 1.5625h8.082c0.86328 0 1.5625-0.69922 1.5625-1.5625v-6.3203h6.3203c0.86328 0 1.5625-0.69922 1.5625-1.5625v-8.082c0-0.86328-0.69922-1.5625-1.5625-1.5625h-6.3203v-6.3203c0-0.86328-0.69922-1.5625-1.5625-1.5625h-8.082c-0.86328 0-1.5625 0.69922-1.5625 1.5625v6.3203h-6.3203c-0.86328 0-1.5625 0.69922-1.5625 1.5625v8.082c0 0.86328 0.69922 1.5625 1.5625 1.5625zm1.5625-8.082h6.3203c0.86328 0 1.5625-0.69922 1.5625-1.5625v-6.3203h4.957v6.3203c0 0.86328 0.69922 1.5625 1.5625 1.5625h6.3203v4.957h-6.3203c-0.86328 0-1.5625 0.69922-1.5625 1.5625v6.3203h-4.957v-6.3203c0-0.86328-0.69922-1.5625-1.5625-1.5625h-6.3203z"/>
<text x="0.0" y="117.5" font-size="5.0" font-weight="bold" font-family="Arbeit Regular, Helvetica, Arial-Unicode, Arial, Sans-serif" fill="#000000">Created by Esih Sukaesih</text><text x="0.0" y="122.5" font-size="5.0" font-weight="bold" font-family="Arbeit Regular, Helvetica, Arial-Unicode, Arial, Sans-serif" fill="#000000">from Noun Project</text></svg>