<svg xmlns="http://www.w3.org/2000/svg" version="1.1" viewBox="-5.0 -10.0 110.0 135.0">
 <path d="m79.641 27.777c-3.9375-0.007813-7.7188 1.5508-10.504 4.332-2.7891 2.7812-4.3555 6.5547-4.3594 10.492s1.5625 7.7148 4.3438 10.5c2.7852 2.7812 6.5625 4.3438 10.5 4.3438 3.9375-0.003906 7.7109-1.5703 10.492-4.3594 2.7812-2.7852 4.3398-6.5664 4.332-10.504-0.007812-3.9219-1.5703-7.6836-4.3438-10.461-2.7773-2.7734-6.5391-4.3359-10.461-4.3438zm0 23.695c-3.5977 0-6.8398-2.168-8.2148-5.4883s-0.61328-7.1445 1.9258-9.6875c2.543-2.543 6.3672-3.3008 9.6875-1.9258 3.3242 1.375 5.4883 4.6172 5.4883 8.2109 0 4.9102-3.9805 8.8906-8.8867 8.8906z"/>
 <path d="m82.582 61.859h-2.6406 0.003906c-3.4922 0.003906-6.9062-1.0312-9.8047-2.9688l-14.418-9.5273v-0.003906c-4.3555-3.168-10.457-2.2031-13.625 2.1562-3.168 4.3555-2.2031 10.457 2.1523 13.625l13.5 10.582c0.71875 0.5625 1.1367 1.4219 1.1406 2.332v10.473h-38.531c-4.9023-0.015625-8.8711-3.9844-8.8867-8.8867v-59.281c0.015625-4.9023 3.9844-8.8711 8.8867-8.8867h59.281c4.9023 0.015625 8.8711 3.9844 8.8867 8.8867-0.082032 0.83594 0.19531 1.6641 0.75781 2.2852 0.5625 0.62109 1.3633 0.97656 2.1992 0.97656 0.83984 0 1.6406-0.35547 2.2031-0.97656 0.5625-0.62109 0.83594-1.4492 0.75781-2.2852 0-3.9258-1.5625-7.6914-4.3359-10.469-2.7773-2.7734-6.543-4.3359-10.469-4.3359h-59.281c-3.9258 0-7.6914 1.5625-10.469 4.3359-2.7734 2.7773-4.3359 6.543-4.3359 10.469v59.281c0 3.9258 1.5625 7.6914 4.3359 10.469 2.7773 2.7734 6.543 4.3359 10.469 4.3359h41.5c0.78906 0 1.5391-0.31641 2.0938-0.875 0.55469-0.55469 0.85938-1.3125 0.85156-2.0977v-13.418c0.011718-2.7227-1.2422-5.2969-3.3867-6.9727l-13.5-10.609c-1.543-1.2656-1.8477-3.5078-0.69531-5.1406 1.2031-1.7148 3.5469-2.168 5.3047-1.0273l14.332 9.5859c3.8789 2.5742 8.4297 3.9492 13.086 3.9414h2.6406-0.003907c1.5781 0.003907 3.0859 0.63281 4.1953 1.75 1.1172 1.1016 1.7461 2.6016 1.75 4.168v17.777c-0.082032 0.83594 0.19531 1.6641 0.75781 2.2852s1.3633 0.97266 2.1992 0.97266c0.83984 0 1.6406-0.35156 2.2031-0.97266s0.83594-1.4492 0.75781-2.2852v-17.777c0.007813-3.1328-1.2461-6.1328-3.4727-8.332-2.2109-2.2578-5.2305-3.5391-8.3906-3.5586z"/>
 <path d="m55.918 23.332c0.007812-0.78516-0.30078-1.5391-0.85547-2.0977-0.55078-0.55859-1.3047-0.875-2.0898-0.875h-29.641c-1.6406 0-2.9727 1.332-2.9727 2.9727 0 1.6445 1.332 2.9727 2.9727 2.9727h29.641c0.78516 0 1.5391-0.3125 2.0898-0.87109 0.55469-0.55859 0.86328-1.3164 0.85547-2.1016z"/>
 <path d="m23.332 35.195c-0.83203-0.082031-1.6641 0.19141-2.2852 0.75781-0.61719 0.5625-0.97266 1.3633-0.97266 2.1992 0 0.83984 0.35547 1.6367 0.97266 2.2031 0.62109 0.5625 1.4531 0.83594 2.2852 0.75391h14.809c0.83203 0.082031 1.6641-0.19141 2.2812-0.75391 0.62109-0.56641 0.97656-1.3633 0.97656-2.2031 0-0.83594-0.35547-1.6367-0.97656-2.1992-0.61719-0.56641-1.4492-0.83984-2.2812-0.75781z"/>
<text x="0.0" y="117.5" font-size="5.0" font-weight="bold" font-family="Arbeit Regular, Helvetica, Arial-Unicode, Arial, Sans-serif" fill="#000000">Created by Wahyu Adam</text><text x="0.0" y="122.5" font-size="5.0" font-weight="bold" font-family="Arbeit Regular, Helvetica, Arial-Unicode, Arial, Sans-serif" fill="#000000">from Noun Project</text></svg>