<svg xmlns="http://www.w3.org/2000/svg" version="1.1" viewBox="-5.0 -10.0 110.0 135.0">
 <path d="m74.621 70.93h-40.336c-1.1289 5.4141-7.875 7.4805-11.832 3.5234-0.97656-0.97656-1.668-2.2422-1.9336-3.6602l-13.352-1.3789c-2.6641-0.27344-4.668-2.5-4.668-5.1719v-35.547c0-2.8672 2.3359-5.2031 5.2031-5.2031h66.457c2.2695 0 4.3516 1.3828 4.9531 3.625l3.7539 13.977 9.5 7.1055c1.4414 1.0781 2.4336 2.5312 2.4336 4.3906v7.8672c1.5977 0.59375 2.6992 2.1289 2.6992 3.8789v1.3867c0 2.8672-2.3359 5.2031-5.2031 5.2031h-3.9375c-1.1289 5.4141-7.875 7.4805-11.832 3.5234-0.94531-0.94531-1.625-2.1602-1.9062-3.5234zm-64.152-20.453h38.699c0.79688 0 1.4414-0.64453 1.4414-1.4375 0-0.79687-0.64453-1.4375-1.4414-1.4375l-38.699-0.003906c-0.79688 0-1.4414 0.64453-1.4414 1.4375 0 0.79688 0.64453 1.4375 1.4414 1.4375zm46.668 8.1445h10.137v-25.332h-10.137zm10.137 2.8789h-10.137v1.8359h10.137zm0 4.7148h-10.137v1.8359h10.137zm-56.805-9.7266h38.699c0.79688 0 1.4414-0.64453 1.4414-1.4375s-0.64453-1.4414-1.4414-1.4414l-38.699-0.003906c-0.79688 0-1.4414 0.64453-1.4414 1.4414s0.64453 1.4375 1.4414 1.4375zm58.246-26.078h8.3086l-0.68359-2.5508c-0.25781-0.95703-1.2031-1.4883-2.1758-1.4883h-66.461c-1.2773 0-2.3242 1.0469-2.3242 2.3242v1.7148zm9.082 2.8789h-7.6406v7.2148h9.5781zm-23.539 0h-7.1641v7.2148h7.1641zm-10.043 0h-7.6758v7.2148h7.6758zm-10.555 0h-7.6758v7.2148h7.6758zm-10.555 0h-7.6758v7.2148h7.6758zm-10.555 0h-7.1641v7.2148h7.1641zm75.816 34.762h3.9375c1.2773 0 2.3242-1.0469 2.3242-2.3242v-1.3867c0-0.69141-0.56641-1.2578-1.2578-1.2578h-4.6094c-0.79688 0-1.4414-0.64453-1.4414-1.4414s0.64453-1.4375 1.4414-1.4375h3.1719v-7.6094c0-0.90625-0.5625-1.5625-1.2773-2.0977l-9.5078-7.1133h-10.984v24.668h4.4688c1.1289-5.4141 7.875-7.4766 11.832-3.5234 0.94531 0.94531 1.6211 2.1602 1.9062 3.5234zm-3.9414-1.4844c-2.6016-2.6016-7.0625-0.75-7.0625 2.9258 0 3.6758 4.4648 5.5273 7.0625 2.9258 1.6172-1.6172 1.6172-4.2383 0-5.8516zm-50.133 1.4844h19.973v-24.668h-48.887v20.859c0 1.2031 0.89453 2.1914 2.082 2.3164l13.113 1.3555c1.2266-5.3281 7.8906-7.2969 11.801-3.3828 0.94531 0.94531 1.6211 2.1602 1.9062 3.5234zm-3.9414-1.4844c-2.6016-2.6016-7.0625-0.75-7.0625 2.9258 0 3.6758 4.4648 5.5273 7.0625 2.9258 1.6172-1.6172 1.6172-4.2383 0-5.8516z" fill-rule="evenodd"/>
<text x="0.0" y="117.5" font-size="5.0" font-weight="bold" font-family="Arbeit Regular, Helvetica, Arial-Unicode, Arial, Sans-serif" fill="#000000">Created by etika ariatna</text><text x="0.0" y="122.5" font-size="5.0" font-weight="bold" font-family="Arbeit Regular, Helvetica, Arial-Unicode, Arial, Sans-serif" fill="#000000">from Noun Project</text></svg>