<svg xmlns="http://www.w3.org/2000/svg" data-name="레이어 1" viewBox="0 0 100 125" x="0px" y="0px"><defs><style>
      .cls-1 {
        stroke-width: 0px;
      }
    </style></defs><g><path class="cls-1" d="m60.2069856,11.2976207l-10.2004061,7.9501436-10.806787-7.7749651c3.4360483-.9701435,7.0607631-1.4821911,10.806787-1.4821911,3.5303816,0,6.9394541.4580959,10.2004061,1.3070126Z"/><path class="cls-1" d="m50.0319105,20.5945827l-12.0946586-8.702498.970083-1.4568686c6.911738-1.9521301,14.4833973-2.0271361,21.5721232-.1802776l1.4249918,1.0865139-11.8725395,9.2531304Zm-8.3164558-8.640166l8.2651359,5.9465291,7.7775969-6.0616699c-5.3043724-1.064559-10.8423161-1.0171868-16.0427328.1151408Z"/></g><path class="cls-1" d="m33.3858398,47.424364l-15.1406868-5.1254107-1.1691726-16.8730625.2454144-.3223943c5.3820102-7.0735931,13.0490719-12.283221,21.5885719-14.6689385l.4993821-.1394849,11.6746196,8.4000152v15.8703506l-17.6981286,12.8589251Zm-13.0892067-6.7071164l12.7247038,4.306924,15.9071956-11.557505v-13.6662266l-9.9336907-7.1472832c-7.7624641,2.2830777-14.7321015,7.0328003-19.7121058,13.435945l1.013897,14.6281458Z"/><g><path class="cls-1" d="m19.2706463,41.5080183l-9.0011324,3.7325359c.8623224-7.2763232,3.6650963-13.9463477,7.9096798-19.4845382l1.0914526,15.7520023Z"/><path class="cls-1" d="m9.73843,46.4569986l-.5393966-1.343346c.8632271-7.2841363,3.6733206-14.2050856,8.1249931-20.0134457l1.4726666.1585829,1.6032378,16.948051-10.6615009,4.2501579Zm7.5744115-17.6084651c-2.8837837,4.4378556-4.8299923,9.4349665-5.7083521,14.6715703l6.5373659-2.7107435-.8290138-11.9608268Z"/></g><path class="cls-1" d="m31.7514984,79.4117955h-10.4330728l-.3151568-.313183c-7.7993091-7.7545687-12.0943901-18.0896073-12.0943901-29.1016739,0-1.6448686.0973762-3.2884214.2901548-4.8852599l.075664-.625708,9.9580347-4.1286203,14.8288197,5.0194811,6.7446194,20.7720591-9.0546729,13.2629048Zm-9.5402381-2.1554359h8.401989l7.8150999-11.4496016-6.0827242-18.7350538-13.0365709-4.4128536-8.03946,3.3338198c-.1361951,1.314579-.2052796,2.6587657-.2052796,4.0042682,0,10.2856926,3.9555801,19.9483089,11.1469458,27.259421Z"/><path class="cls-1" d="m66.6338986,47.4283117l-17.705366-12.8628728v-15.8440327l11.0364106-8.602005.5171467.1361951c8.4033049,2.215967,16.0486543,7.1788647,21.5306725,13.974804l.238177.2967343v.3934526l-.9277059,17.3665231-14.6893349,5.1412014Zm-15.5499302-13.961645l15.90259,11.5535573,12.2601929-4.2911333.8290138-15.4624231c-5.0622477-6.1406236-12.0022775-10.6607226-19.6305203-12.7872088l-9.3612764,7.2946634v13.6925445Z"/><g><path class="cls-1" d="m89.7301571,45.2405542l-9.4458226-3.7325359.8893805-16.5874311c4.5948583,5.699881,7.653656,12.6797989,8.5564422,20.319967Z"/><path class="cls-1" d="m89.7301571,45.8626016l-10.5636754-3.6373383,2.0072332-17.304676.8390475-.67637c4.846441,6.0116659,7.8848423,13.2286915,8.7888621,20.8700933l-1.0714674.7482911Zm-8.326654-5.0716638l6.999245,2.7660111c-.9329695-5.6030805-3.0857736-10.9225857-6.3123479-15.6051977l-.6868971,12.8391866Z"/></g><path class="cls-1" d="m78.6940754,79.4117955h-10.5297911l-8.9704556-13.2668525,6.7571204-20.761532,14.3564135-5.0254027,10.4166241,4.1161193.0763219.6375511c.1934366,1.6021021.2908128,3.2456548.2908128,4.8852599,0,11.006803-4.2898174,21.3405257-12.0812312,29.100358l-.3158148.3144989Zm-9.3849625-2.1554359h8.4914699c7.1847862-7.3163757,11.1351027-16.9776761,11.1351027-27.259421,0-1.3376072-.0684265-2.6771882-.2039637-3.9917672l-8.4690996-3.3469787-12.5931143,4.4069321-6.0991729,18.7455809,7.738778,11.4456539Z"/><g><path class="cls-1" d="m78.2496319,78.334571c-3.5168936,3.503488-7.6805496,6.3601313-12.3023838,8.367858l2.7892037-8.367858h9.51318Z"/><path class="cls-1" d="m64.6245457,87.2602193l3.335775-10.0038597h11.0628994l-.0133298,1.840937c-3.6660832,3.6542402-7.9164238,6.5452613-12.633907,8.5927938l-1.7514375-.429871Zm4.888531-7.8484239l-1.7461925,5.2372617c2.7831177-1.4251142,5.3741148-3.1778862,7.7440415-5.2372617h-5.997849Z"/></g><path class="cls-1" d="m50.0062505,91.0811515c-5.7076942,0-11.2160303-1.1408809-16.3710486-3.3910612l-.4342453-.1894889-3.2140733-9.3270631,9.0612524-13.273432h21.9063605l8.9730874,13.2708002-3.1094597,9.3270631-.4395089.1921207c-5.1569922,2.2501803-10.6653283,3.3910612-16.3723645,3.3910612Zm-15.076208-5.1819942c4.7569601,2.0080556,9.8264452,3.0265583,15.076208,3.0265583,5.2477889,0,10.3153002-1.0171868,15.0709444-3.0239265l2.4686189-7.4045407-7.7361462-11.4417062h-19.6232829l-7.8085204,11.4390745,2.5521782,7.4045407Z"/><g><path class="cls-1" d="m34.0659108,86.702429c-4.6218341-2.0077267-8.7855724-4.86437-12.302466-8.367858h9.4188468l2.8836192,8.367858Z"/><path class="cls-1" d="m35.558894,87.7249209l-1.9217183-.0348305c-4.7155094-2.0462166-8.9665079-4.9372377-12.634565-8.5927938l-.6797094-1.840937h11.627955l3.6080376,10.4685613Zm-11.0560028-8.3131254c2.3607155,2.0514802,4.9411854,3.7989886,7.7098283,5.221471l-1.7988283-5.221471h-5.9109999Z"/></g><polygon class="cls-1" points="50.0063655 32.6836909 31.9364055 45.812414 38.8337352 67.0554935 61.1651468 67.0554935 68.0775077 45.812414 50.0063655 32.6836909"/><polygon class="cls-1" points="78.2637778 79.4117955 78.249303 79.4117955 78.249303 77.2563596 78.2637778 79.4117955"/><polygon class="cls-1" points="21.763198 79.4117955 21.7500391 79.4117955 21.7500391 77.2563596 21.763198 79.4117955"/><text x="0" y="115" fill="#000000" font-size="5px" font-weight="bold" font-family="'Helvetica Neue', Helvetica, Arial-Unicode, Arial, Sans-serif">Created by NAM KYEONGMIN</text><text x="0" y="120" fill="#000000" font-size="5px" font-weight="bold" font-family="'Helvetica Neue', Helvetica, Arial-Unicode, Arial, Sans-serif">from the Noun Project</text></svg>